<?xml version="1.0" encoding="UTF-8"?>
<svg width="1920" height="1080" viewBox="0 0 1920 1080" xmlns="http://www.w3.org/2000/svg">
  <defs>
    <linearGradient id="g1" x1="0" y1="0" x2="1" y2="1">
      <stop offset="0%" stop-color="#1e3a8a"/>
      <stop offset="50%" stop-color="#d97706"/>
      <stop offset="100%" stop-color="#059669"/>
    </linearGradient>
    <linearGradient id="g2" x1="1" y1="0" x2="0" y2="1">
      <stop offset="0%" stop-color="rgba(255,255,255,0.15)"/>
      <stop offset="100%" stop-color="rgba(255,255,255,0.0)"/>
    </linearGradient>
  </defs>
  <rect width="100%" height="100%" fill="url(#g1)"/>
  
  <!-- Abstract lab equipment silhouettes -->
  <g fill="url(#g2)" opacity="0.3">
    <!-- Microscope silhouette -->
    <g transform="translate(200,400)">
      <rect x="0" y="120" width="80" height="40" rx="4"/>
      <circle cx="40" cy="100" r="25"/>
      <rect x="35" y="60" width="10" height="40"/>
      <rect x="20" y="50" width="40" height="15" rx="7"/>
    </g>
    
    <!-- Computer/Monitor -->
    <g transform="translate(1400,300)">
      <rect x="0" y="80" width="120" height="80" rx="4"/>
      <rect x="50" y="160" width="20" height="40"/>
      <rect x="30" y="200" width="60" height="8" rx="4"/>
    </g>
    
    <!-- Medical device -->
    <g transform="translate(800,500)">
      <rect x="0" y="0" width="150" height="100" rx="8"/>
      <rect x="20" y="20" width="110" height="60" rx="4"/>
      <circle cx="140" cy="80" r="8"/>
    </g>
    
    <!-- Test tubes -->
    <g transform="translate(1600,600)">
      <rect x="10" y="60" width="8" height="40" rx="4"/>
      <rect x="25" y="65" width="8" height="35" rx="4"/>
      <rect x="40" y="55" width="8" height="45" rx="4"/>
      <rect x="55" y="70" width="8" height="30" rx="4"/>
    </g>
    
    <!-- Large circles for depth -->
    <circle cx="300" cy="200" r="180"/>
    <circle cx="700" cy="300" r="140"/>
    <circle cx="1200" cy="220" r="200"/>
    <circle cx="1650" cy="400" r="160"/>
    <circle cx="400" cy="800" r="200"/>
    <circle cx="1000" cy="820" r="160"/>
    <circle cx="1540" cy="760" r="190"/>
  </g>
  
  <!-- Flowing lines for connectivity -->
  <g stroke="rgba(255,255,255,0.1)" stroke-width="2" fill="none">
    <path d="M0,900 C400,700 800,1100 1200,900 1500,760 1700,960 1920,880"/>
    <path d="M0,700 C400,500 800,900 1200,700 1500,560 1700,760 1920,680"/>
    <path d="M0,500 C600,300 1000,700 1400,500 1600,400 1800,600 1920,520"/>
  </g>
  
  <!-- DNA helix pattern -->
  <g stroke="rgba(255,255,255,0.08)" stroke-width="3" fill="none" opacity="0.6">
    <path d="M100 200 Q200 150 300 200 Q400 250 500 200 Q600 150 700 200 Q800 250 900 200"/>
    <path d="M100 250 Q200 300 300 250 Q400 200 500 250 Q600 300 700 250 Q800 200 900 250"/>
    <line x1="150" y1="175" x2="150" y2="275"/>
    <line x1="250" y1="175" x2="250" y2="275"/>
    <line x1="350" y1="225" x2="350" y2="225"/>
    <line x1="450" y1="225" x2="450" y2="225"/>
    <line x1="550" y1="175" x2="550" y2="275"/>
    <line x1="650" y1="175" x2="650" y2="275"/>
    <line x1="750" y1="225" x2="750" y2="225"/>
    <line x1="850" y1="225" x2="850" y2="225"/>
  </g>
</svg>
