<?xml version="1.0" encoding="UTF-8"?>
<svg width="1920" height="1080" viewBox="0 0 1920 1080" xmlns="http://www.w3.org/2000/svg">
  <defs>
    <linearGradient id="g1" x1="0" y1="0" x2="1" y2="1">
      <stop offset="0%" stop-color="#1e3a8a"/>
      <stop offset="50%" stop-color="#d97706"/>
      <stop offset="100%" stop-color="#059669"/>
    </linearGradient>
    <linearGradient id="g2" x1="1" y1="0" x2="0" y2="1">
      <stop offset="0%" stop-color="rgba(255,255,255,0.15)"/>
      <stop offset="100%" stop-color="rgba(255,255,255,0.0)"/>
    </linearGradient>
  </defs>
  <rect width="100%" height="100%" fill="url(#g1)"/>
  <g fill="url(#g2)">
    <circle cx="200" cy="200" r="180"/>
    <circle cx="700" cy="300" r="140"/>
    <circle cx="1200" cy="220" r="200"/>
    <circle cx="1650" cy="400" r="160"/>
    <circle cx="400" cy="800" r="200"/>
    <circle cx="1000" cy="820" r="160"/>
    <circle cx="1540" cy="760" r="190"/>
  </g>
  <g stroke="rgba(255,255,255,0.1)" stroke-width="2" fill="none">
    <path d="M0,900 C400,700 800,1100 1200,900 1500,760 1700,960 1920,880"/>
    <path d="M0,700 C400,500 800,900 1200,700 1500,560 1700,760 1920,680"/>
  </g>
</svg>
